# xmcd
#
# Track frame offsets: 
#        150
#        13054
#        25595
#        38096
#        50399
#        63934
#        78745
#        92581
#        106967
#        119687
#        133348
#        147996
#        162243
#        174416
#        186213
#        200988
#        213282
#        226722
#
# Disc length: 3197 seconds
#
# Revision: 4
# Processed by: cddbd v1.5.2PL0 Copyright (c) Steve Scherf et al.
# Submitted via: ExactAudioCopy v0.99pb5
#
DISCID=fa0c7b12
DTITLE=Various Artist - Verve Jazzclub Highlights - The History of Jazz Vol.1
DTITLE=Various Artist - CD1 - The 20s
DYEAR=2008
DGENRE=Jazz
TTITLE0=Jelly Roll Morton - King Porter Stomp
TTITLE1=Luis Armstrong&Lil's Hot Shots - Drop That Sack
TTITLE2=King Oliver's Dixie Syncopators - Wa Wa Wa
TTITLE3=Red Nichols and His Five Pennies - That's No Bargain
TTITLE4=Clarence Williams and His Washboard Band - Cushion Foot Stomp 
TTITLE5=Duke Ellington and The Washingtonians - Black And Tan Fantasy
TTITLE6=Johnny Doods' Black Bottom Stompers - Wild Man Blues
TTITLE7=Chicago Rhythm Kings - I've Found A New Baby
TTITLE8=Benny Goodman Trio - That's A Plenty
TTITLE9=Jimmie Noone's Apex Club Orchestra - My Monday Date
TTITLE10=Wingy Manone and His Royal Club Orchestra - Downright Disgused 
TTITLE10=Blues
TTITLE11=Duke Ellington and The Jungl Band - Doin' The Voom Voom
TTITLE12=Jabbo Smith's Rhythm Aces - Jazz Battle
TTITLE13=Red Nichols and His Five Pennies - Indiana
TTITLE14=Lousiana Rhythm Kings - Basin Street Blues
TTITLE15=Walter Page's Blue Devils - Blue Devil Blues
TTITLE16=King Oliver's Jazz Band - Too Bad
TTITLE17=Jimmie Noone's Apex Club Orchestra - Chicago Rhythm
EXTD=YEAR: 2008
EXTT0=
EXTT1=
EXTT2=
EXTT3=
EXTT4=
EXTT5=
EXTT6=
EXTT7=
EXTT8=
EXTT9=
EXTT10=
EXTT11=
EXTT12=
EXTT13=
EXTT14=
EXTT15=
EXTT16=
EXTT17=
PLAYORDER=
